Coordinates
version=1
nRows=22
nColumns=24
inDegrees=yes

Units are S.I. units (second, meters, Newtons, ...)
Angles are in degrees.

endheader
time	pelvis_tilt	pelvis_list	pelvis_rotation	pelvis_tx	pelvis_ty	pelvis_tz	hip_flexion_r	hip_adduction_r	hip_rotation_r	knee_angle_r	ankle_angle_r	subtalar_angle_r	mtp_angle_r	hip_flexion_l	hip_adduction_l	hip_rotation_l	knee_angle_l	ankle_angle_l	subtalar_angle_l	mtp_angle_l	lumbar_extension	lumbar_bending	lumbar_rotation
      1.38000000	     18.77699190	     -6.46920017	      2.30303204	     -0.06430298	      0.95253596	      0.27004035	    -27.33430608	     11.22557646	      1.95928494	     -4.88474561	     21.97661387	      3.22356976	     15.56483430	     11.03048026	     -7.74547314	     -6.35807482	    -36.94877396	     18.97640484	      3.95111035	     38.39259319	    -35.50081263	     10.02760082	      9.11781467
      1.38500000	     19.14511509	     -6.16207299	      2.00925590	     -0.05792614	      0.95265234	      0.27014352	    -28.31766867	     10.74412804	      1.97489001	     -4.69025972	     22.24662131	      3.58285235	     15.48002219	     10.13178798	     -7.33013376	     -6.95033339	    -34.20061317	     18.39298899	      4.43476808	     38.55121913	    -35.91519191	      9.53981285	      9.21558748
      1.39000000	     19.47713915	     -5.95290923	      1.72515981	     -0.05155836	      0.95254915	      0.27027225	    -29.21476103	     10.35657857	      2.02344913	     -4.58091133	     22.52282444	      3.97710265	     15.45190204	      9.28597405	     -7.01786308	     -7.52512380	    -31.47137704	     17.80146801	      4.87064113	     38.70510624	    -36.29186581	      9.14717220	      9.41148389
      1.39500000	     19.89268207	     -5.62451251	      1.43763572	     -0.04503178	      0.95254948	      0.27044555	    -30.24231335	      9.85066283	      2.04200544	     -4.42225303	     22.73746681	      4.34359656	     15.25726851	      8.24280037	     -6.55681365	     -8.12266151	    -28.60453762	     17.04734641	      5.42319153	     38.93365351	    -36.73189768	      8.62314151	      9.44896430
      1.40000000	     20.16756490	     -5.43466120	      1.38139987	     -0.03865017	      0.95217814	      0.27008213	    -31.06800944	      9.58729041	      1.83412294	     -4.30009548	     22.97422953	      4.78351225	     15.06986508	      7.53103091	     -6.18294471	     -8.38645978	    -25.98411549	     16.19694597	      5.99579797	     39.19594450	    -37.00515367	      8.39468615	      9.40932777
      1.40500000	     20.36291226	     -5.29748507	      1.30750904	     -0.03214684	      0.95172216	      0.26984088	    -31.75620942	      9.36926755	      1.58057174	     -4.28460641	     23.28751815	      5.25232806	     14.92740487	      6.88270963	     -5.87724959	     -8.71851686	    -23.36285663	     15.24704184	      6.39886341	     39.46456508	    -37.18915842	      8.20152579	      9.47698613
      1.41000000	     20.54431864	     -5.15812043	      1.25811953	     -0.02555367	      0.95108191	      0.26952707	    -32.47298560	      9.16295147	      1.33222869	     -4.18036178	     23.56132032	      5.70646128	     14.90081330	      6.26330021	     -5.57275367	     -9.02903749	    -20.81659436	     14.40286183	      6.96923923	     39.72940665	    -37.35022143	      8.02105259	      9.48291644
      1.41500000	     20.72360119	     -5.08891225	      1.20161316	     -0.01909506	      0.95043718	      0.26924186	    -33.13483097	      9.03396937	      1.12287641	     -4.17350573	     23.84993264	      6.01114995	     14.83427635	      5.63923949	     -5.33083921	     -9.28815248	    -18.30910734	     13.42941416	      7.31061529	     40.22117031	    -37.52254856	      7.89874454	      9.52085540
      1.42000000	     20.81475840	     -5.05042979	      1.06305713	     -0.01253246	      0.94968594	      0.26916033	    -33.72092168	      8.88727856	      1.10845576	     -4.14355117	     24.08462106	      6.16151647	     14.83955428	      5.13587957	     -5.14419034	     -9.68868326	    -15.94711187	     12.60574394	      7.68241024	     40.85503462	    -37.60022153	      7.75857074	      9.65353022
      1.42500000	     20.83888183	     -5.02318023	      1.01350547	     -0.00599984	      0.94875941	      0.26881766	    -34.21190408	      8.79047110	      0.92953803	     -4.12423115	     24.30118303	      6.53126737	     15.02650871	      4.72447072	     -4.92994314	     -9.92730158	    -13.69800007	     11.94705480	      8.00054874	     41.38329678	    -37.60252206	      7.69480906	      9.68962686
      1.43000000	     20.82943350	     -5.03687390	      1.05099435	      0.00051897	      0.94770306	      0.26834933	    -34.68685495	      8.78576234	      0.77990485	     -4.05938514	     24.43373522	      6.81100142	     15.22008765	      4.40109486	     -4.74565673	    -10.00345270	    -11.62091615	     11.39523913	      8.22403697	     41.62894683	    -37.56840108	      7.70183210	      9.70180125
      1.43500000	     20.74364722	     -5.07191595	      1.15012828	      0.00702844	      0.94644942	      0.26782126	    -35.03261759	      8.83862766	      0.52718424	     -4.09104974	     24.65290541	      7.12295310	     15.40510482	      4.23169152	     -4.59104561	    -10.12486619	     -9.76449746	     11.09059417	      8.65373387	     41.79349881	    -37.44807953	      7.75932125	      9.65836266
      1.44000000	     20.70720189	     -5.13862013	      1.24906409	      0.01348034	      0.94528147	      0.26726515	    -35.35478778	      8.91978114	      0.26049116	     -4.27456340	     24.81390619	      7.42129515	     15.47254688	      4.02951109	     -4.47547397	    -10.23809585	     -8.06505501	     10.87786318	      9.10989795	     41.89959745	    -37.38353117	      7.85695990	      9.68637033
      1.44500000	     20.48551944	     -5.27473822	      1.34887100	      0.01994909	      0.94385968	      0.26667477	    -35.48154194	      9.06581586	      0.14492118	     -4.43236780	     24.95485730	      7.59125330	     15.49655705	      4.10000734	     -4.43593615	    -10.31703736	     -6.63755153	     10.82347306	      9.57655456	     41.90132805	    -37.11722766	      8.03899275	      9.69593921
      1.45000000	     20.28199081	     -5.36402443	      1.43692310	      0.02644477	      0.94245284	      0.26604004	    -35.61387563	      9.14778434	     -0.07270581	     -4.61844362	     25.19846278	      7.94401366	     15.58397432	      4.22550203	     -4.35329296	    -10.55036692	     -5.52851984	     10.94009735	     10.17599853	     41.84808236	    -36.87865633	      8.17362384	      9.73334177
      1.45500000	     20.08867923	     -5.52558319	      1.65930136	      0.03281956	      0.94101672	      0.26541303	    -35.72733398	      9.39197047	     -0.26376884	     -4.83936396	     25.34104009	      8.11572302	     15.70377034	      4.46847618	     -4.37857905	    -10.76779251	     -4.77699758	     11.27123391	     11.00536742	     41.79215927	    -36.65020153	      8.41341033	      9.67283454
      1.46000000	     19.95323476	     -5.61318388	      1.76512535	      0.03933125	      0.93975643	      0.26479873	    -35.90184720	      9.48853686	     -0.40112913	     -5.08706268	     25.51403766	      8.31169577	     15.91793913	      4.63196830	     -4.33622067	    -11.15137922	     -4.22764021	     11.56258769	     11.99853774	     41.70321893	    -36.47079503	      8.53203468	      9.65844629
      1.46500000	     19.81720392	     -5.67476303	      1.76591283	      0.04609617	      0.93848217	      0.26429460	    -36.08709659	      9.48135327	     -0.59362597	     -5.35817065	     25.74512278	      8.73422118	     16.46608575	      4.79870254	     -4.29368190	    -11.69911364	     -3.93531913	     12.01840104	     12.91968422	     41.33785132	    -36.27546085	      8.56925033	      9.78227882
      1.47000000	     19.64430256	     -5.77499541	      1.90391935	      0.05292364	      0.93711899	      0.26359343	    -36.21866531	      9.59051003	     -0.84472542	     -5.64994289	     25.87784942	      9.06700072	     16.97075833	      5.09429669	     -4.29701451	    -11.94711761	     -3.91951047	     12.46371696	     13.71123539	     41.00020346	    -36.01696722	      8.72542681	      9.67973190
      1.47500000	     19.49322393	     -5.93323643	      1.89995325	      0.05979679	      0.93588344	      0.26328746	    -36.35690527	      9.67338195	     -0.84086318	     -5.99035561	     25.88953944	      9.32419247	     18.06503297	      5.40241384	     -4.42477363	    -12.26524043	     -4.22493460	     13.03635547	     14.42309912	     40.19725576	    -35.80683562	      8.82783222	      9.82770255
      1.48000000	     19.44747325	     -5.96924796	      2.04974881	      0.06667221	      0.93475033	      0.26286956	    -36.63692994	      9.74523730	     -1.04728635	     -6.25778693	     25.98053030	      9.55007811	     18.33273748	      5.65344924	     -4.42427192	    -12.20919031	     -4.76000887	     13.42965526	     14.76358931	     40.07640392	    -35.68380648	      8.89003621	      9.70478309
      1.48500000	     19.36449042	     -5.90446253	      2.04943083	      0.07367633	      0.93371590	      0.26267242	    -36.81713789	      9.62538983	     -1.27317206	     -6.67740450	     26.10967276	     10.03692598	     19.18928318	      5.81361276	     -4.31467671	    -11.91587321	     -5.26849472	     13.59903176	     14.50650260	     39.64113018	    -35.51768329	      8.77933437	      9.63359650
